<svg width="851" height="888" viewBox="0 0 851 888" fill="none" xmlns="http://www.w3.org/2000/svg">
<path fill-rule="evenodd" clip-rule="evenodd" d="M252.041 0.444973C246.541 0.832973 238.441 2.05397 234.041 3.15797C221.222 6.37397 220.095 6.64797 219.041 6.79997C215.509 7.31197 211.323 8.81397 206.495 11.303C203.445 12.875 199.446 14.426 197.608 14.75C193.575 15.461 190.541 16.984 190.541 18.297C190.541 18.828 189.443 19.262 188.1 19.262C186.757 19.262 185.388 19.7 185.058 20.235C184.727 20.77 182.662 21.691 180.469 22.281C178.275 22.872 176.746 23.784 177.07 24.309C177.394 24.833 177.027 25.262 176.254 25.262C174.203 25.262 168.541 28.252 168.541 29.335C168.541 29.845 167.662 30.262 166.588 30.262C163.675 30.262 159.541 32.398 159.541 33.903C159.541 34.63 158.346 35.524 156.885 35.89C155.424 36.257 151.712 38.305 148.635 40.442C145.558 42.578 141.578 45.257 139.791 46.393C138.004 47.53 136.541 49.114 136.541 49.913C136.541 50.712 135.25 51.816 133.672 52.366C127.733 54.436 125.134 70.652 130.007 75.23C135.82 80.691 146.883 79.113 154.015 71.806C156.757 68.997 163.867 64.262 165.345 64.262C166.003 64.262 166.541 63.785 166.541 63.203C166.541 62.621 166.944 62.393 167.436 62.697C167.929 63.002 168.567 62.636 168.855 61.885C169.144 61.134 170.653 60.205 172.21 59.822C173.767 59.438 176.391 57.848 178.041 56.289C179.691 54.73 183.214 52.729 185.869 51.843C188.524 50.958 191.989 49.564 193.569 48.747C195.149 47.93 197.316 47.262 198.384 47.262C199.453 47.262 200.586 46.587 200.903 45.762C201.219 44.937 202.176 44.262 203.029 44.262C204.471 44.262 214.501 39.308 216.951 37.386C217.55 36.915 219.166 36.282 220.541 35.979C221.916 35.675 225.516 34.677 228.541 33.759C231.566 32.842 236.516 31.64 239.541 31.087C246.116 29.887 246.528 29.785 248.857 28.781C251.874 27.479 274.597 28.827 279.041 30.571C281.241 31.434 285.741 32.667 289.041 33.31C292.341 33.953 295.491 34.828 296.041 35.255C296.591 35.682 298.466 36.336 300.207 36.708C301.949 37.08 303.58 37.921 303.832 38.577C304.083 39.233 306.033 40.388 308.165 41.145C310.297 41.901 312.829 43.344 313.793 44.352C314.757 45.359 318.736 47.784 322.637 49.742C326.537 51.699 331.958 55.181 334.685 57.48C337.411 59.779 340.312 61.758 341.132 61.878C341.952 61.999 343.512 63.227 344.598 64.607C345.684 65.988 348.1 67.622 349.968 68.238C351.836 68.854 353.593 69.954 353.872 70.682C354.151 71.409 355.626 72.317 357.149 72.7C359.985 73.412 364.508 76.633 369.519 81.512C371.072 83.024 372.854 84.262 373.479 84.262C374.103 84.262 376.703 86.264 379.256 88.711C381.81 91.157 384.268 92.931 384.72 92.651C385.171 92.372 385.541 92.537 385.541 93.018C385.541 93.498 387.13 94.649 389.072 95.575C391.014 96.501 392.862 97.935 393.179 98.761C393.496 99.586 394.313 100.262 394.995 100.262C395.676 100.262 397.856 101.837 399.838 103.762C401.82 105.687 404.406 107.262 405.585 107.262C406.841 107.262 407.932 108.04 408.219 109.14C408.489 110.173 409.81 111.519 411.154 112.131C412.498 112.744 413.857 113.921 414.174 114.748C414.491 115.574 415.117 116.024 415.566 115.747C416.014 115.47 417.257 116.357 418.328 117.719C419.399 119.08 420.56 119.909 420.908 119.561C421.256 119.213 421.541 119.48 421.541 120.154C421.541 120.828 421.994 121.1 422.548 120.758C423.102 120.415 423.822 120.832 424.149 121.683C424.476 122.534 427.285 124.669 430.392 126.428C433.499 128.186 436.401 130.218 436.841 130.943C437.281 131.669 438.263 132.262 439.023 132.262C439.784 132.262 440.692 133.162 441.041 134.262C441.39 135.362 441.983 136.263 442.358 136.264C442.734 136.266 444.589 137.59 446.48 139.206C448.372 140.823 450.354 141.877 450.885 141.549C451.416 141.221 451.54 141.454 451.162 142.067C450.744 142.743 452.157 143.953 454.757 145.145C458.732 146.968 461.113 148.849 464.319 152.702C465.022 153.547 466.822 154.538 468.319 154.906C469.816 155.273 471.941 156.516 473.041 157.669C477.486 162.327 493.607 174.262 495.454 174.262C495.846 174.262 497.46 175.612 499.041 177.262C500.622 178.912 502.402 180.262 502.996 180.262C503.591 180.262 506.256 182.062 508.918 184.262C511.581 186.462 514.068 188.262 514.447 188.262C515.286 188.262 528.392 196.817 530.564 198.782C531.421 199.558 534.579 201.467 537.582 203.024C545.399 207.077 550.8 210.252 552.62 211.863C553.488 212.633 554.705 213.262 555.324 213.262C555.943 213.262 557.584 214.396 558.97 215.782C560.356 217.168 562.867 218.577 564.551 218.914C566.235 219.251 568.03 220.307 568.541 221.262C569.052 222.217 570.872 223.278 572.587 223.621C574.301 223.964 576.852 225.148 578.257 226.253C579.662 227.358 581.628 228.262 582.626 228.262C583.625 228.262 584.801 228.878 585.241 229.632C585.681 230.385 587.871 231.927 590.108 233.059C592.345 234.19 594.758 235.819 595.471 236.678C596.184 237.537 597.201 237.972 597.731 237.645C598.261 237.317 599.577 237.997 600.657 239.156C601.736 240.314 603.276 241.262 604.08 241.262C604.884 241.262 605.541 241.712 605.541 242.262C605.541 242.812 605.878 243.209 606.291 243.144C608.004 242.873 609.833 243.303 609.288 243.849C608.965 244.171 611.703 246.022 615.371 247.962C619.04 249.902 624.291 253.494 627.041 255.944C633.398 261.609 632.815 261.026 637.154 266.058C639.347 268.603 641.426 270.136 642.251 269.82C643.018 269.526 643.402 269.677 643.106 270.157C642.553 271.052 649.193 277.262 650.702 277.262C651.164 277.262 651.541 277.778 651.541 278.409C651.541 279.566 655.769 284.966 661.457 291.074C663.153 292.895 664.541 295.17 664.541 296.129C664.541 297.089 665.666 299.398 667.041 301.262C668.416 303.126 669.541 305.238 669.541 305.956C669.541 306.674 670.441 308.162 671.541 309.262C672.641 310.362 673.541 312.189 673.541 313.321C673.541 314.453 673.991 315.102 674.541 314.762C675.091 314.422 675.608 314.733 675.689 315.453C675.77 316.173 675.929 317.437 676.041 318.262C676.153 319.087 676.312 320.519 676.393 321.445C676.474 322.37 677.441 323.413 678.541 323.762C679.856 324.179 680.541 325.275 680.541 326.961C680.541 328.372 681.386 330.929 682.419 332.644C683.452 334.359 684.596 337.562 684.96 339.762C685.943 345.702 688.693 354.553 690.086 356.262C690.758 357.087 691.785 361.812 692.368 366.762C694.118 381.629 700.347 389.426 709.149 387.771C710.189 387.575 711.588 387.381 712.256 387.339C714.982 387.167 720.541 381.063 720.541 378.242C720.541 376.695 720.988 375.279 721.535 375.095C722.647 374.722 719.97 357.483 718.53 355.749C718.057 355.178 717.356 352.248 716.972 349.237C716.589 346.226 715.772 343.113 715.158 342.32C714.272 341.176 714.351 341.036 715.541 341.644C716.736 342.254 716.721 342.141 715.469 341.086C714.605 340.358 713.366 337.094 712.717 333.833C712.067 330.571 710.862 326.875 710.038 325.618C709.215 324.361 708.541 322.578 708.541 321.657C708.541 320.154 706.593 315.4 703.053 308.262C702.371 306.887 701.503 304.463 701.124 302.875C700.744 301.288 699.28 298.475 697.869 296.625C696.458 294.775 695.604 293.262 695.97 293.262C696.957 293.262 688.839 281.525 684.212 276.262C683.487 275.437 682.318 273.321 681.616 271.561C680.914 269.8 679.259 267.652 677.94 266.788C676.62 265.923 675.541 264.317 675.541 263.218C675.541 262.056 674.494 260.742 673.041 260.08C671.666 259.454 670.541 258.511 670.541 257.985C670.541 256.843 656.656 243.262 655.488 243.262C655.041 243.262 654.397 242.385 654.057 241.313C653.717 240.241 652.63 239.108 651.642 238.794C650.653 238.48 649.336 237.107 648.714 235.743C648.06 234.306 646.743 233.262 645.585 233.262C644.486 233.262 642.85 232.137 641.949 230.762C640.969 229.267 639.365 228.262 637.956 228.262C636.507 228.262 634.761 227.125 633.417 225.308C632.215 223.683 629.989 222.08 628.47 221.746C626.951 221.413 625.449 220.464 625.132 219.638C624.815 218.811 624.149 218.386 623.653 218.693C623.157 219 622.482 218.55 622.153 217.693C621.824 216.836 621.138 216.393 620.629 216.708C620.119 217.023 618.991 216.569 618.122 215.7C617.252 214.83 616.541 214.413 616.541 214.772C616.541 215.635 609.605 211.326 607.327 209.048C606.345 208.066 604.789 207.262 603.87 207.262C602.951 207.262 601.488 206.651 600.62 205.905C599.751 205.158 594.773 202.346 589.556 199.655C584.34 196.964 579.478 193.976 578.752 193.015C578.026 192.054 575.64 190.982 573.45 190.631C571.064 190.25 569.068 189.247 568.469 188.128C567.92 187.102 566.966 186.262 566.35 186.262C565.734 186.262 563.746 185.13 561.931 183.746C560.117 182.363 557.276 180.959 555.617 180.627C553.902 180.284 552.342 179.212 552.003 178.143C551.675 177.108 550.917 176.262 550.318 176.262C549.719 176.262 547.837 175.204 546.135 173.912C544.433 172.619 540.919 170.626 538.325 169.483C533.479 167.347 532.61 166.756 527.266 161.965C525.55 160.427 522.645 158.456 520.809 157.585C518.974 156.714 517.022 155.16 516.471 154.132C515.921 153.103 514.881 152.262 514.161 152.262C513.44 152.262 512.036 151.362 511.041 150.262C510.046 149.162 508.501 148.262 507.609 148.262C506.716 148.262 504.834 147.024 503.426 145.512C500.135 141.977 496.942 139.575 492.414 137.227C490.42 136.193 488.521 134.653 488.196 133.805C487.87 132.956 487.105 132.262 486.495 132.262C485.886 132.262 484.037 130.912 482.387 129.262C480.737 127.612 478.747 126.262 477.964 126.262C477.181 126.262 476.541 125.812 476.541 125.262C476.541 124.712 475.995 124.374 475.328 124.512C474.66 124.649 473.654 123.749 473.09 122.512C472.527 121.274 471.697 120.262 471.245 120.262C470.793 120.262 470.73 120.825 471.106 121.512C471.482 122.2 469.674 120.644 467.088 118.055C464.503 115.466 461.409 113.054 460.214 112.695C459.019 112.335 456.691 110.824 455.041 109.337C451.874 106.481 449.973 105.113 442.287 100.153C439.435 98.313 437.798 96.62 438.197 95.924C438.563 95.285 438.517 95.072 438.095 95.452C437.673 95.831 436.364 95.228 435.185 94.111C434.006 92.995 431.128 90.696 428.791 89.002C426.454 87.309 424.541 85.605 424.541 85.217C424.541 84.829 423.191 84.242 421.541 83.912C419.86 83.576 418.541 82.673 418.541 81.86C418.541 79.975 413.809 76.262 411.406 76.262C410.38 76.262 409.541 75.887 409.541 75.429C409.541 74.971 407.662 73.087 405.366 71.242C403.07 69.396 401.542 68.454 401.971 69.148C402.591 70.153 402.335 70.15 400.71 69.135C399.588 68.435 398.433 66.958 398.145 65.855C397.856 64.752 397.33 64.14 396.974 64.495C396.619 64.851 395.364 64.241 394.185 63.141C393.006 62.04 390.166 60.309 387.875 59.294C385.584 58.279 382.945 56.282 382.01 54.856C381.076 53.429 379.529 52.262 378.574 52.262C377.619 52.262 375.425 50.912 373.698 49.262C371.972 47.612 369.896 46.262 369.085 46.262C368.275 46.262 367.13 45.363 366.543 44.265C365.955 43.167 363.63 41.255 361.377 40.015C359.123 38.776 356.12 37.13 354.703 36.358C353.287 35.586 351.236 34.124 350.146 33.108C349.056 32.093 347.56 31.262 346.821 31.262C346.083 31.262 345.219 30.586 344.902 29.761C344.245 28.049 335.012 23.124 334.124 24.012C333.804 24.333 333.541 24.103 333.541 23.502C333.541 22.306 328.046 19.262 325.887 19.262C325.147 19.262 324.541 18.82 324.541 18.279C324.541 17.124 314.556 11.865 314.509 12.995C314.492 13.417 313.929 13.063 313.259 12.209C312.589 11.355 309.116 9.62297 305.541 8.36097C301.966 7.09897 298.141 5.70097 297.041 5.25397C295.941 4.80697 292.116 3.95597 288.541 3.36197C284.966 2.76897 279.791 1.85098 277.041 1.32198C269.586 -0.113024 263.153 -0.338027 252.041 0.444973ZM278.538 42.593C266.27 48.322 264.202 59.923 273.748 69.469C278.007 73.728 285.768 74.774 291.341 71.841C306.003 64.124 293.516 35.599 278.538 42.593ZM215.773 66.262C215.086 67.362 213.911 68.262 213.162 68.262C212.406 68.262 211.252 70.224 210.565 72.676C207.519 83.556 213.94 89.898 233.541 95.369C236.016 96.06 239.235 97.443 240.695 98.443C242.155 99.444 244.646 100.262 246.23 100.262C247.818 100.262 250.441 101.365 252.076 102.72C259.336 108.737 261.387 110.262 262.223 110.262C262.715 110.262 264.675 111.594 266.579 113.221C268.483 114.849 270.552 116.199 271.177 116.221C271.802 116.244 274.727 118.574 277.677 121.4C280.627 124.226 282.366 126.234 281.541 125.863C280.716 125.491 280.884 125.767 281.915 126.475C285.254 128.769 290.541 133.972 290.541 134.965C290.541 135.496 291.847 137.095 293.444 138.518C295.041 139.941 296.632 142.4 296.979 143.982C297.327 145.564 298.825 148.167 300.308 149.767C301.792 151.367 303.014 153.145 303.023 153.719C303.033 154.293 304.225 156.787 305.673 159.262C307.12 161.737 308.618 165.107 309.002 166.752C309.386 168.396 310.13 170.008 310.656 170.333C311.182 170.658 311.882 172.687 312.212 174.843C312.542 176.998 313.363 179.437 314.038 180.262C316.875 183.733 314.72 205.036 311.42 206.136C310.774 206.351 308.849 207.863 307.143 209.496C303.829 212.666 275.652 213.625 273.75 210.631C272.882 209.266 265.475 207.648 255.791 206.708C251.803 206.32 248.541 205.589 248.541 205.082C248.541 203.87 242.236 201.262 239.308 201.262C238.045 201.262 235.443 200.435 233.526 199.425C231.609 198.415 227.566 196.786 224.541 195.805C221.516 194.824 218.366 193.661 217.541 193.221C205.281 186.671 202.541 185.343 202.541 185.948C202.541 186.341 202.001 186.122 201.341 185.462C200.681 184.802 199.254 184.262 198.17 184.262C197.086 184.262 195.385 183.526 194.392 182.627C192.234 180.674 189.693 180.198 178.791 179.703C173.888 179.48 170.541 179.72 170.541 180.295C170.541 180.827 170.203 181.163 169.791 181.041C168.546 180.675 162.819 186.602 162.088 189.012C161.713 190.25 161.008 191.262 160.521 191.262C159.4 191.262 156.758 196.964 156.35 200.262C156.18 201.637 155.479 203.357 154.791 204.083C154.104 204.81 153.541 206.081 153.541 206.907C153.541 207.733 152.416 211.761 151.041 215.857C149.666 219.953 148.539 224.532 148.537 226.033C148.533 229.012 146.091 233.549 142.399 237.439C141.102 238.806 138.981 241.277 137.686 242.93C134.998 246.363 127.455 245.838 125.443 242.079C124.908 241.08 123.891 240.262 123.183 240.262C121.822 240.262 117.135 233.709 116.049 230.288C115.696 229.174 114.987 228.262 114.474 228.262C113.961 228.262 113.541 227.344 113.541 226.222C113.541 225.1 112.57 222.288 111.384 219.972C110.197 217.657 109.078 214.862 108.897 213.762C108.03 208.491 107.147 205.7 106.142 205.047C104.112 203.728 104.61 165.92 106.716 161.471C107.681 159.431 108.771 155.614 109.138 152.99C109.505 150.365 110.195 147.976 110.673 147.681C111.15 147.385 111.541 146.326 111.541 145.325C111.541 144.325 112.236 142.93 113.087 142.224C113.937 141.519 114.392 140.315 114.098 139.55C113.804 138.784 114.009 138.433 114.552 138.769C115.096 139.105 115.541 138.488 115.541 137.398C115.541 136.307 116.666 134.078 118.041 132.444C119.416 130.81 120.541 128.777 120.541 127.927C120.541 126.25 121.551 125.387 124.287 124.723C125.252 124.49 127.932 123.753 130.244 123.086C133.641 122.106 134.929 122.132 136.957 123.217C139.983 124.836 157.009 124.125 160.696 122.226C164.402 120.316 168.541 116.051 168.541 114.142C168.541 113.182 169.418 112.118 170.49 111.778C171.562 111.438 172.713 110.294 173.049 109.237C173.385 108.179 174.87 106.362 176.35 105.198C177.83 104.033 179.041 102.559 179.041 101.921C179.041 101.284 180.021 100.623 181.218 100.452C186.179 99.746 189.258 92.411 188.716 82.594C188.469 78.122 184.024 75.616 174.726 74.706C166.643 73.916 169.309 71.96 148.616 93.859C146.009 96.619 144.294 97.703 143.361 97.181C137.911 94.131 123.486 92.925 121.961 95.391C121.665 95.87 120.283 96.262 118.89 96.262C117.496 96.262 115.212 97.162 113.814 98.262C112.415 99.362 110.46 100.262 109.468 100.262C107.594 100.262 101.041 105.65 101.041 107.19C101.041 107.674 99.9161 109.227 98.5411 110.641C94.2031 115.105 92.5411 117.229 92.5411 118.314C92.5411 118.892 91.6581 121.03 90.5791 123.064C89.5001 125.098 88.3801 127.946 88.0901 129.393C87.8001 130.839 86.7341 132.24 85.7211 132.505C84.3061 132.875 83.5801 134.698 82.5871 140.374C81.8751 144.437 80.8901 149.787 80.3971 152.262C79.9041 154.737 79.2911 158.016 79.0361 159.549C78.7801 161.082 78.1151 163.19 77.5561 164.234C76.2451 166.684 76.2771 192.82 77.6011 201.262C78.1621 204.837 78.9831 210.167 79.4261 213.108C79.8701 216.048 80.6391 218.748 81.1371 219.108C82.1341 219.829 82.4901 221.053 83.2181 226.262C83.8561 230.827 85.5531 235.262 86.6621 235.262C87.1461 235.262 87.5411 235.846 87.5411 236.56C87.5411 238.896 94.2951 251.107 97.4481 254.472C99.1441 256.281 100.534 258.069 100.536 258.445C100.539 258.82 101.441 259.413 102.541 259.762C103.641 260.111 104.541 260.998 104.541 261.732C104.541 263.183 112.915 269.04 118.541 271.526C127.287 275.389 138.548 275.515 144.854 271.819C147.399 270.327 149.922 269.379 150.461 269.713C151 270.046 151.929 269.405 152.526 268.29C153.123 267.175 153.995 266.262 154.464 266.262C155.937 266.262 164.607 257.177 164.028 256.241C163.725 255.751 164.617 254.603 166.009 253.691C167.57 252.668 168.541 251.099 168.541 249.599C168.541 248.251 169.725 246.069 171.198 244.704C172.659 243.35 173.575 241.962 173.233 241.621C172.891 241.279 173.271 240.058 174.076 238.908C174.882 237.758 175.541 235.207 175.541 233.239C175.541 231.272 175.964 229.234 176.481 228.712C176.998 228.189 177.633 226.637 177.892 225.262C178.151 223.887 178.628 222.087 178.952 221.262C179.276 220.437 179.718 218.203 179.935 216.297C180.151 214.392 180.829 212.666 181.441 212.462C182.053 212.258 182.355 211.771 182.113 211.379C181.871 210.987 182.086 210.013 182.592 209.214C183.222 208.218 183.515 208.154 183.526 209.012C183.534 209.7 184.414 210.262 185.482 210.262C186.55 210.262 187.701 210.712 188.041 211.262C188.381 211.812 189.333 212.262 190.157 212.262C192.049 212.262 210.175 220.861 210.96 222.131C211.281 222.65 213.757 223.379 216.462 223.751C219.167 224.123 222.1 225.222 222.979 226.193C223.857 227.164 226.017 228 227.778 228.05C229.539 228.1 231.46 228.799 232.048 229.603C232.649 230.425 235.728 231.376 239.079 231.776C242.358 232.167 246.391 233.074 248.041 233.791C249.691 234.507 252.391 235.32 254.041 235.597C261.005 236.764 264.071 237.498 264.541 238.111C264.816 238.469 266.166 238.844 267.541 238.943C268.916 239.043 272.516 239.462 275.541 239.874C287.35 241.484 312.174 240.473 313.5 238.329C313.92 237.648 314.552 237.13 314.903 237.177C317.41 237.512 318.889 236.895 321.888 234.262C323.767 232.612 325.808 231.262 326.423 231.262C327.038 231.262 327.541 230.802 327.541 230.241C327.541 229.679 328.666 228.707 330.041 228.08C331.416 227.454 332.559 226.451 332.582 225.851C332.604 225.252 333.935 223.226 335.54 221.349C337.145 219.473 338.225 217.56 337.941 217.099C337.656 216.639 337.827 216.262 338.322 216.262C339.414 216.262 341.211 210.86 342.835 202.698C344.265 195.508 343.501 174.474 341.771 173.404C341.153 173.022 340.367 170.247 340.024 167.236C339.681 164.225 338.116 159.062 336.546 155.762C334.976 152.462 333.357 148.412 332.948 146.762C332.539 145.112 330.896 142.537 329.297 141.04C327.697 139.542 326.655 137.887 326.98 137.361C327.759 136.101 322.856 128.952 317.126 122.994C314.604 120.372 312.541 117.935 312.541 117.578C312.541 117.222 311.872 116.217 311.054 115.346C310.236 114.475 307.682 111.512 305.378 108.762C303.073 106.012 300.843 103.866 300.422 103.993C300.001 104.12 298.778 103.107 297.705 101.743C296.631 100.378 295.555 99.262 295.313 99.262C295.072 99.262 292.886 97.41 290.457 95.146C285.944 90.94 280.31 86.844 275.652 84.383C274.216 83.624 272.141 82.247 271.041 81.323C269.02 79.626 264.061 77.132 261.827 76.69C261.159 76.558 259.29 75.507 257.673 74.356C256.055 73.204 254.014 72.262 253.137 72.262C252.259 72.262 251.541 71.785 251.541 71.203C251.541 70.621 251.142 70.391 250.654 70.692C250.167 70.993 249.212 70.57 248.532 69.751C247.852 68.932 246.231 68.262 244.929 68.262C243.628 68.262 240.195 67.362 237.302 66.263C229.852 63.431 217.541 63.431 215.773 66.262ZM209.041 241.791C206.841 242.583 204.366 243.255 203.541 243.283C198.418 243.459 194.432 256.889 198.073 261.703C198.88 262.771 199.541 265.557 199.541 267.894C199.541 270.232 199.961 272.403 200.474 272.72C200.987 273.037 201.37 274.563 201.326 276.11C201.282 277.657 201.941 280.912 202.79 283.343C203.639 285.773 204.861 289.787 205.505 292.262C206.149 294.737 207.096 298.144 207.609 299.833C208.121 301.522 208.541 303.911 208.541 305.142C208.541 306.373 208.968 307.116 209.49 306.793C210.013 306.47 210.738 307.906 211.103 309.984C211.467 312.062 212.359 314.712 213.085 315.873C213.811 317.034 214.275 318.834 214.116 319.873C213.957 320.912 214.662 322.835 215.684 324.147C216.705 325.459 217.541 327.414 217.541 328.493C217.541 329.571 218.176 331.648 218.951 333.108C219.727 334.568 221.331 339.016 222.515 342.992C223.7 346.969 225.097 350.488 225.621 350.812C226.145 351.135 226.302 351.839 225.971 352.375C225.64 352.911 226.082 354.439 226.955 355.771C227.827 357.102 228.541 358.699 228.541 359.319C228.541 359.939 229.441 361.591 230.541 362.989C231.641 364.388 232.541 366.766 232.541 368.274C232.541 369.783 233.216 371.577 234.041 372.262C234.866 372.947 235.541 374.577 235.541 375.884C235.541 377.192 235.919 378.262 236.381 378.262C236.843 378.262 237.823 380.175 238.559 382.512C239.294 384.849 240.491 387.472 241.219 388.341C241.946 389.209 242.541 390.49 242.541 391.186C242.541 391.883 243.388 393.648 244.424 395.108C246.668 398.271 249.916 405.12 251.985 411.054C252.808 413.414 254.17 416.034 255.011 416.875C256.964 418.828 256.966 420.262 255.016 420.262C254.178 420.262 253.064 419.137 252.541 417.762C252.018 416.387 251.12 415.262 250.544 415.262C249.969 415.262 248.986 414.137 248.359 412.762C247.733 411.387 246.672 410.262 246.002 410.262C245.332 410.262 244.224 408.912 243.541 407.262C242.858 405.612 241.733 404.262 241.041 404.262C240.349 404.262 239.2 402.853 238.487 401.132C237.774 399.41 235.913 396.603 234.351 394.892C232.789 393.182 231.723 391.23 231.982 390.555C232.242 389.879 231.954 389.017 231.343 388.64C230.623 388.195 230.517 388.414 231.041 389.262C231.576 390.128 231.459 390.33 230.696 389.857C230.061 389.465 229.541 388.669 229.541 388.087C229.541 386.804 220.785 373.506 218.312 371.033C217.338 370.059 216.541 368.207 216.541 366.917C216.541 365.627 215.641 363.757 214.541 362.762C213.441 361.767 212.541 360.347 212.541 359.607C212.541 358.867 212.016 358.262 211.374 358.262C210.733 358.262 210.489 357.981 210.832 357.638C211.175 357.295 210.589 356.282 209.53 355.388C208.471 354.494 207.402 352.637 207.155 351.262C206.573 348.018 203.902 342.806 202.02 341.245C201.207 340.57 200.541 338.696 200.541 337.081C200.541 335.093 200.163 334.378 199.371 334.867C198.595 335.347 198.407 335.054 198.812 333.999C199.147 333.124 198.774 331.87 197.982 331.213C197.189 330.555 196.541 329.172 196.541 328.14C196.541 327.107 196.187 326.262 195.754 326.262C195.321 326.262 194.856 324.817 194.722 323.051C194.587 321.285 194.088 319.598 193.613 319.301C191.524 317.998 184.138 299.838 183.724 294.989C183.53 292.713 182.085 289.262 181.326 289.262C180.776 289.262 180.572 288.624 180.871 287.845C181.626 285.876 174.771 277.358 171.839 276.622C160.764 273.842 151.898 280.661 152.915 291.177C153.586 298.109 157.687 311.783 158.771 310.699C159.12 310.35 159.14 311.079 158.816 312.319C158.392 313.941 158.57 314.362 159.45 313.818C160.214 313.346 160.561 313.569 160.373 314.412C160.104 315.62 161.094 318.819 163.579 324.762C164.039 325.862 164.699 327.774 165.046 329.012C165.392 330.25 166.06 331.262 166.529 331.262C166.998 331.262 167.687 332.724 168.06 334.512C168.432 336.3 169.405 338.815 170.222 340.103C171.038 341.391 171.906 343.544 172.149 344.887C172.393 346.231 174.156 350.277 176.067 353.879C177.978 357.481 179.541 361.055 179.541 361.822C179.541 362.589 180.666 363.953 182.041 364.854C183.488 365.802 184.541 367.445 184.541 368.755C184.541 369.999 185.216 371.577 186.041 372.262C186.866 372.947 187.541 374.01 187.541 374.626C187.541 375.877 194.447 386.351 196.027 387.497C196.585 387.901 196.663 388.238 196.202 388.247C195.741 388.255 196.528 389.647 197.952 391.339C199.376 393.031 200.541 394.986 200.541 395.684C200.541 396.381 201.441 397.767 202.541 398.762C203.641 399.757 204.541 401.204 204.541 401.976C204.541 402.748 204.991 403.102 205.541 402.762C206.091 402.422 206.541 402.846 206.541 403.703C206.541 404.56 206.991 405.262 207.541 405.262C208.091 405.262 208.541 406.1 208.541 407.124C208.541 409.299 213.971 416.498 214.906 415.563C215.255 415.214 215.541 415.517 215.541 416.235C215.541 416.954 216.328 418.187 217.291 418.976C218.46 419.934 218.543 420.204 217.541 419.79C216.716 419.449 217.053 419.92 218.291 420.838C219.529 421.755 220.541 423.091 220.541 423.805C220.541 424.52 223.466 428.117 227.041 431.8C230.616 435.482 233.541 439.054 233.541 439.738C233.541 440.421 235.566 442.707 238.041 444.816C240.516 446.926 242.541 449.239 242.541 449.957C242.541 450.675 242.878 451.166 243.291 451.05C244.959 450.577 248.541 453.458 248.541 455.272C248.541 456.375 249.726 457.825 251.291 458.635C252.803 459.419 255.747 461.905 257.831 464.161C259.916 466.417 262.278 468.262 263.081 468.262C263.884 468.262 264.541 468.781 264.541 469.416C264.541 470.783 272.608 477.874 273.751 477.512C274.186 477.374 274.541 477.735 274.541 478.314C274.541 478.893 275.891 479.837 277.541 480.412C279.191 480.987 280.541 481.798 280.541 482.213C280.541 483.86 295.477 484.315 297.303 482.723C298.259 481.89 300.391 480.134 302.041 478.822C306.947 474.919 305.396 451.226 299.646 442.258C296.354 437.123 295.486 435.627 292.549 430.041C290.895 426.894 289.541 423.721 289.541 422.991C289.541 422.26 288.979 421.099 288.291 420.412C287.604 419.725 287.004 418.847 286.959 418.462C286.632 415.652 284.916 411.287 283.147 408.762C281.99 407.112 281.005 405.537 280.956 405.262C280.41 402.154 273.534 388.262 272.542 388.262C271.992 388.262 271.531 387.25 271.518 386.012C271.506 384.774 269.931 380.858 268.018 377.308C266.106 373.759 264.541 370.029 264.541 369.019C264.541 368.009 263.551 365.288 262.341 362.972C261.131 360.657 260.261 358.154 260.408 357.412C260.571 356.589 260.207 356.35 259.478 356.801C258.714 357.273 258.462 357.039 258.781 356.151C259.055 355.387 258.699 354.087 257.988 353.262C256.656 351.716 255.717 349.376 250.021 333.418C248.187 328.279 246.428 323.816 246.114 323.501C245.799 323.186 245.541 322.075 245.541 321.031C245.541 319.002 241.602 309.096 240.464 308.262C240.089 307.987 239.23 305.062 238.554 301.762C237.879 298.462 237.162 295.195 236.961 294.502C236.76 293.808 236.578 293.023 236.556 292.756C236.534 292.489 235.634 289.907 234.556 287.017C233.477 284.127 232.442 280.743 232.254 279.498C232.067 278.253 231.38 276.701 230.727 276.048C230.075 275.396 229.541 274.032 229.541 273.018C229.541 271.193 227.459 261.732 225.248 253.512C224.619 251.175 223.753 249.262 223.323 249.262C222.893 249.262 222.541 248.587 222.541 247.762C222.541 246.937 222.064 246.262 221.482 246.262C220.9 246.262 220.701 245.812 221.041 245.262C221.381 244.712 220.957 244.262 220.1 244.262C219.243 244.262 217.641 243.362 216.541 242.262C214.199 239.92 214.228 239.922 209.041 241.791ZM267.041 247.918C265.941 248.171 264.366 248.649 263.541 248.979C262.716 249.309 261.704 249.508 261.293 249.421C259.455 249.033 254.558 258.793 255.1 261.762C256.494 269.389 258.014 274.889 259.107 276.262C259.764 277.087 260.607 280.299 260.979 283.4C261.352 286.501 262.292 289.876 263.067 290.9C263.843 291.924 264.494 293.662 264.515 294.762C264.536 295.862 265.226 298.051 266.047 299.626C266.869 301.202 267.541 303.345 267.541 304.39C267.541 305.434 267.985 307.071 268.527 308.026C269.931 310.498 274.693 324.243 275.275 327.502C275.56 329.093 276.209 329.967 276.823 329.588C277.462 329.193 277.65 329.534 277.299 330.451C276.974 331.297 277.563 332.692 278.629 333.605C279.681 334.506 280.541 335.907 280.541 336.718C280.541 338.342 282.107 342.18 287.089 352.762C288.901 356.612 291.155 361.96 292.096 364.646C293.038 367.332 294.695 370.416 295.779 371.5C296.862 372.583 297.826 373.999 297.921 374.646C298.016 375.294 299.432 378.06 301.067 380.793C304.794 387.02 307.463 392.433 307.507 393.851C307.526 394.451 308.666 395.454 310.041 396.08C311.416 396.707 312.541 397.977 312.541 398.903C312.541 401.73 322.953 417.193 326.791 420.065C327.753 420.786 328.541 422.234 328.541 423.284C328.541 424.333 329.441 425.673 330.541 426.262C331.641 426.851 332.541 427.81 332.541 428.394C332.541 428.977 334.341 431.5 336.541 433.999C338.741 436.499 340.541 438.93 340.541 439.403C340.541 439.875 341.131 440.262 341.853 440.262C342.575 440.262 344.129 441.567 345.308 443.161C353.466 454.195 377.541 456.14 377.541 445.766C377.541 445.073 378.166 443.988 378.93 443.354C381.885 440.902 381.313 427.233 377.937 419.611C377.169 417.878 376.54 414.953 376.54 413.111C376.538 409.463 372.15 390.387 370.655 387.53C370.147 386.558 368.272 379.237 366.49 371.262C364.708 363.287 362.925 356.537 362.528 356.262C362.13 355.987 361.324 353.287 360.735 350.262C360.147 347.237 358.97 342.062 358.119 338.762C357.268 335.462 356.565 331.273 356.557 329.453C356.546 327.184 356.173 326.371 355.371 326.867C354.603 327.342 354.404 327.06 354.793 326.048C355.118 325.2 354.973 324.094 354.469 323.59C353.965 323.086 353.265 319.769 352.913 316.218C352.561 312.667 351.712 309.087 351.027 308.262C350.341 307.437 349.462 304.123 349.074 300.897C348.686 297.672 347.731 292.722 346.953 289.897C346.174 287.073 344.656 279.579 343.578 273.244C341.069 258.491 334.343 247.794 330.188 251.948C329.858 252.278 329.304 251.809 328.958 250.905C327.731 247.709 319.564 250.742 317.518 255.152C316.852 256.588 315.91 258.543 315.424 259.498C314.147 262.01 314.334 267.004 316.041 275.924C316.866 280.235 317.541 285.648 317.541 287.953C317.541 290.258 317.939 292.39 318.426 292.691C318.912 292.991 319.623 295.32 320.004 297.866C320.386 300.411 321.563 305.2 322.62 308.508C323.676 311.816 324.541 316.28 324.541 318.427C324.541 320.575 325.183 323.329 325.968 324.547C326.753 325.765 328.418 333.062 329.668 340.762C330.918 348.462 332.469 355.437 333.114 356.262C334.283 357.758 335.911 364.175 337.047 371.762C337.376 373.962 338.466 378.237 339.469 381.262C340.472 384.287 341.096 387.099 340.857 387.512C339.948 389.081 337.455 388.167 336.615 385.956C336.132 384.687 334.598 382.294 333.204 380.638C331.811 378.982 330.368 376.42 329.998 374.945C329.627 373.469 328.909 372.262 328.401 372.262C327.894 372.262 327.21 371.474 326.883 370.512C325.444 366.285 320.53 356.373 319.582 355.787C319.01 355.434 318.541 354.019 318.541 352.644C318.541 350.99 318.145 350.389 317.371 350.867C316.586 351.352 316.41 351.047 316.835 349.939C317.227 348.918 316.557 347.304 315.082 345.712C313.77 344.296 312.396 341.365 312.03 339.199C311.665 337.034 311.038 335.262 310.638 335.262C309.588 335.262 306.541 328.545 306.541 326.228C306.541 325.147 306.123 324.262 305.612 324.262C304.779 324.262 302.858 318.583 301.131 311.012C300.785 309.5 299.885 308.262 299.129 308.262C297.566 308.262 296.541 306.131 296.541 302.88C296.541 301.66 296.149 300.234 295.67 299.712C295.19 299.189 294.03 296.062 293.092 292.762C292.154 289.462 290.505 284.805 289.429 282.414C288.353 280.023 286.989 274.398 286.4 269.914C285.705 264.633 284.687 261.058 283.508 259.762C282.508 258.662 281.387 256.543 281.017 255.053C279.971 250.84 272.005 246.772 267.041 247.918ZM744.541 362.762C743.856 363.587 742.692 364.262 741.954 364.262C737.016 364.262 736.477 380.548 741.252 385.459C746.661 391.023 753.991 399.407 754.95 401.13C755.451 402.027 756.913 403.836 758.2 405.148C759.488 406.461 760.541 408.351 760.541 409.349C760.541 410.346 761.128 411.522 761.846 411.962C762.564 412.402 764.148 414.405 765.366 416.413C766.585 418.421 768.247 420.319 769.061 420.631C769.875 420.944 770.551 422.226 770.563 423.481C770.585 425.676 774.457 431.803 774.534 429.762C774.609 427.765 776.511 431.824 776.526 434.012C776.534 435.291 777.159 436.262 777.974 436.262C778.762 436.262 779.72 437.274 780.104 438.512C781.017 441.456 784.306 448.999 786.272 452.659C787.128 454.253 787.931 456.503 788.057 457.659C788.446 461.234 788.516 461.396 789.425 460.834C790.324 460.278 792.836 465.358 793.067 468.201C793.3 471.061 795.684 477.262 796.551 477.262C797.25 477.262 798.298 479.338 799.076 482.262C799.149 482.537 799.776 484.112 800.469 485.762C801.162 487.412 802.37 492.137 803.153 496.262C803.936 500.387 805.447 507.137 806.511 511.262C810.752 527.703 811.541 532.213 811.541 540.017C811.541 544.487 811.93 548.384 812.404 548.678C816.58 551.258 812.474 622.362 807.792 628.568C806.566 630.193 804.548 637.452 804.509 640.378C804.492 641.689 803.817 643.636 803.009 644.703C802.202 645.771 801.541 647.443 801.541 648.419C801.541 650.995 795.916 663.797 793.782 666.077C793.089 666.818 792.736 667.769 792.997 668.191C793.258 668.614 792.677 669.815 791.706 670.861C790.229 672.45 788.903 674.768 788.041 677.262C787.106 679.97 785.828 682.214 783.871 684.589C782.589 686.144 781.267 688.506 780.932 689.839C780.598 691.172 779.684 692.262 778.901 692.262C778.119 692.262 777.202 693.05 776.865 694.012C776.528 694.974 774.854 697.292 773.146 699.162C771.438 701.032 770.716 702.192 771.541 701.739C772.366 701.286 771.107 702.905 768.743 705.338C761.235 713.065 760.541 713.937 760.541 715.642C760.541 716.56 759.408 717.742 758.023 718.269C756.638 718.795 755.074 720.359 754.548 721.744C754.021 723.129 752.89 724.262 752.034 724.262C751.178 724.262 750.226 724.92 749.917 725.724C749.609 726.528 748.472 727.467 747.391 727.81C746.311 728.153 745.018 729.507 744.519 730.819C744.02 732.132 742.057 733.855 740.157 734.649C738.257 735.443 736.2 737.031 735.586 738.177C734.973 739.324 733.879 740.262 733.155 740.262C732.431 740.262 728.958 742.443 725.437 745.109C721.916 747.774 717.628 750.683 715.909 751.572C714.19 752.461 712.518 753.88 712.194 754.725C711.869 755.57 710.955 756.262 710.162 756.262C708.106 756.262 700.541 761.391 700.541 762.785C700.541 763.427 699.641 764.767 698.541 765.762C687.932 775.363 704.576 793.038 716.559 784.896C718.474 783.595 721.616 782.186 723.541 781.765C725.466 781.344 728.032 779.934 729.243 778.631C730.454 777.328 732.126 776.262 732.958 776.262C733.79 776.262 734.952 775.362 735.541 774.262C736.13 773.162 737.215 772.262 737.954 772.262C738.692 772.262 739.852 771.592 740.532 770.773C741.212 769.954 742.097 769.488 742.5 769.737C742.903 769.986 745.352 768.293 747.944 765.976C750.535 763.658 754.043 760.637 755.739 759.262C761.311 754.745 787.918 728.136 789.074 725.925C789.696 724.735 790.764 723.886 791.447 724.037C792.131 724.188 792.409 723.857 792.066 723.302C791.722 722.746 792.842 720.923 794.554 719.25C796.265 717.576 798.281 714.757 799.032 712.985C799.783 711.212 801.33 708.979 802.469 708.022C803.609 707.065 804.541 705.71 804.541 705.012C804.541 704.314 805.485 703.154 806.638 702.433C807.792 701.713 808.494 700.882 808.199 700.587C807.904 700.291 808.76 698.952 810.102 697.61C812.375 695.337 812.987 693.966 812.635 691.938C812.556 691.484 812.865 691.344 813.321 691.626C813.777 691.908 815.41 689.129 816.95 685.45C818.491 681.772 821.896 674.262 824.517 668.762C829.292 658.742 830.313 655.754 831.122 649.437C831.361 647.572 831.803 645.646 832.105 645.158C832.407 644.669 832.811 643.48 833.003 642.516C833.783 638.59 834.076 637.736 834.837 637.174C835.275 636.851 835.768 635.051 835.932 633.174C836.096 631.298 836.496 629.087 836.821 628.262C837.146 627.437 837.977 623.387 838.668 619.262C839.36 615.137 839.979 611.537 840.045 611.262C840.111 610.987 840.526 603.9 840.966 595.512C841.407 587.124 842.166 580.262 842.654 580.262C843.802 580.262 843.818 564.551 842.67 563.842C842.191 563.546 841.495 556.882 841.123 549.033C840.48 535.479 839.033 524.814 835.861 510.262C835.082 506.687 834.049 501.737 833.566 499.262C831.858 490.504 830.319 484.75 829.436 483.812C828.944 483.29 828.541 481.785 828.541 480.47C828.541 479.154 827.641 476.933 826.541 475.535C825.441 474.136 824.541 471.965 824.541 470.71C824.541 469.455 824.034 468.26 823.414 468.053C822.795 467.847 822.201 466.797 822.096 465.72C821.645 461.127 819.194 454.258 817.438 452.669C816.395 451.724 815.534 450.009 815.526 448.857C815.501 445.26 812.502 437.923 810.477 436.504C809.412 435.759 808.541 434.26 808.541 433.174C808.541 432.088 807.888 430.949 807.089 430.642C806.291 430.336 805.149 428.604 804.552 426.794C803.954 424.985 802.583 422.705 801.503 421.728C800.424 420.751 799.541 418.852 799.541 417.508C799.541 416.131 798.32 413.908 796.744 412.413C795.205 410.955 793.364 408.332 792.652 406.584C791.94 404.836 790.724 403.162 789.949 402.865C789.175 402.568 788.541 401.578 788.541 400.665C788.541 399.201 785.589 395.2 779.761 388.762C778.765 387.662 776.278 384.203 774.235 381.076C772.191 377.949 769.286 374.42 767.78 373.235C766.274 372.05 765.041 370.715 765.041 370.268C765.041 367.985 758.609 363.689 753.541 362.587C746.284 361.008 745.992 361.014 744.541 362.762ZM733.291 440.505C729.422 444.876 728.563 448.566 730.552 452.282C731.107 453.32 731.844 457.003 732.189 460.466C732.534 463.929 733.173 467.221 733.609 467.781C734.046 468.342 735.174 471.942 736.118 475.781C737.061 479.621 738.177 483.212 738.598 483.762C741.482 487.53 741.802 556.689 738.983 566.762C738.059 570.062 736.875 575.012 736.352 577.762C735.828 580.512 734.934 584.112 734.364 585.762C733.794 587.412 733.348 589.55 733.372 590.512C733.397 591.474 732.942 592.262 732.362 592.262C731.782 592.262 731.543 593.162 731.831 594.262C732.118 595.362 731.946 596.262 731.447 596.262C730.949 596.262 730.534 597.05 730.526 598.012C730.505 600.584 727.597 608.527 726.041 610.262C725.301 611.087 724.036 613.562 723.23 615.762C720.334 623.667 713.41 639.726 712.676 640.239C712.264 640.527 711.323 642.255 710.585 644.079C709.592 646.533 709.007 647.054 708.338 646.079C707.683 645.126 707.523 645.314 707.759 646.762C707.938 647.862 706.975 650.014 705.619 651.543C704.264 653.073 702.251 656.448 701.147 659.043C700.042 661.639 698.891 663.987 698.588 664.262C698.286 664.537 697.4 665.999 696.62 667.512C695.841 669.025 694.581 670.262 693.821 670.262C693.061 670.262 691.813 671.76 691.048 673.592C690.283 675.423 688.956 677.503 688.099 678.214C687.242 678.925 686.541 679.921 686.541 680.427C686.541 681.443 684.965 683.531 682.291 686.055C681.329 686.963 680.541 688.549 680.541 689.578C680.541 690.607 679.66 691.68 678.584 691.961C677.495 692.246 676.147 693.925 675.546 695.747C674.952 697.547 673.583 699.819 672.503 700.796C671.424 701.773 670.541 703.162 670.541 703.883C670.541 704.603 669.191 706.574 667.541 708.262C665.891 709.95 664.541 711.81 664.541 712.395C664.541 712.981 663.191 714.721 661.541 716.262C659.76 717.926 658.541 720.077 658.541 721.556C658.541 722.927 657.931 724.282 657.184 724.569C656.438 724.855 655.052 727.491 654.105 730.426C652.28 736.076 649.639 742.278 646.367 748.6C645.274 750.711 644.171 754.311 643.916 756.6C643.187 763.132 642.979 764.157 642.237 764.9C641.854 765.282 641.541 766.664 641.541 767.971C641.541 769.277 640.832 773.778 639.966 777.972C637.687 789.007 641.579 808.061 647.093 812.863C648.42 814.019 649.213 815.256 648.857 815.613C648.5 815.97 648.897 816.262 649.739 816.262C650.582 816.262 652.42 817.166 653.825 818.271C655.23 819.376 657.742 820.552 659.409 820.886C661.075 821.219 663.207 822.34 664.145 823.377C665.083 824.414 666.794 825.282 667.946 825.306C671.413 825.379 679.649 827.819 680.371 828.987C681.046 830.079 694.591 833.262 698.561 833.262C700.927 833.262 708.545 835.445 716.041 838.271C718.791 839.308 722.729 840.455 724.791 840.821C726.854 841.186 728.541 841.915 728.541 842.441C728.541 842.967 729.441 843.111 730.541 842.762C731.688 842.398 732.541 842.582 732.541 843.195C732.541 843.782 733.442 844.262 734.543 844.262C738.644 844.262 758.183 848.562 762.041 850.313C764.241 851.312 768.066 852.257 770.541 852.413C773.016 852.569 776.166 853.235 777.541 853.892C778.916 854.55 782.147 855.36 784.72 855.693C790.945 856.499 797.252 859.116 793.541 859.354C783.075 860.023 729.362 858.888 727.87 857.965C727.379 857.662 723.308 857.288 718.825 857.135C714.341 856.982 710.895 856.498 711.166 856.06C711.437 855.621 707.02 855.235 701.35 855.202C688.905 855.129 681.496 854.468 680.087 853.305C679.512 852.829 675.891 852.232 672.041 851.977C668.191 851.722 662.341 850.842 659.041 850.023C655.741 849.203 648.541 847.735 643.041 846.76C636.788 845.652 632.716 844.433 632.174 843.505C631.598 842.52 631.083 842.385 630.638 843.104C630.27 843.7 628.935 843.916 627.671 843.586C625.898 843.122 625.677 842.768 626.706 842.037C627.659 841.36 627.397 841.23 625.791 841.582C624.554 841.853 623.541 841.681 623.541 841.2C623.541 840.719 622.882 840.578 622.076 840.887C621.271 841.196 619.284 840.503 617.661 839.347C616.037 838.191 613.239 836.952 611.441 836.592C607.016 835.707 592.091 820.762 591.204 816.328C590.861 814.614 589.559 812.184 588.311 810.928C587.062 809.673 585.441 806.872 584.708 804.704C582.615 798.515 579.388 789.924 578.47 788.099C578.009 787.185 577.328 784.137 576.955 781.327C576.582 778.516 575.879 775.971 575.393 775.67C574.906 775.37 574.779 774.685 575.111 774.149C575.442 773.613 575.285 772.632 574.763 771.968C573.672 770.585 572.664 762.729 571.912 749.762C571.625 744.812 570.974 740.334 570.465 739.812C569.238 738.55 569.25 692.532 570.478 692.095C570.993 691.912 571.646 684.787 571.929 676.262C572.212 667.737 572.893 656.712 573.441 651.762C573.989 646.812 574.682 640.287 574.981 637.262C575.279 634.237 575.778 630.271 576.089 628.45C577.128 622.37 573.263 614.262 569.327 614.262C568.28 614.262 567.701 613.812 568.041 613.262C568.425 612.641 566.563 612.262 563.135 612.262C558.635 612.262 557.413 612.633 556.541 614.262C555.952 615.362 554.924 616.265 554.256 616.269C550.849 616.288 544.735 635.531 546.982 639.166C547.297 639.676 547.066 641.369 546.469 642.928C545.056 646.613 543.732 659.276 542.932 676.762C542.58 684.462 541.897 691.19 541.416 691.712C540.233 692.996 540.41 718.057 541.703 732.262C542.278 738.587 542.681 746.535 542.598 749.924C542.513 753.366 542.916 756.376 543.51 756.743C544.095 757.104 544.353 757.757 544.083 758.193C543.814 758.63 544.241 762.761 545.032 767.374C545.824 771.988 546.963 779.809 547.565 784.755C548.276 790.611 549.159 794.028 550.095 794.552C550.886 794.995 551.816 797.127 552.162 799.29C552.508 801.454 553.409 803.738 554.166 804.366C554.922 804.993 555.556 806.239 555.574 807.134C555.632 810.043 559.279 819.482 560.678 820.347C562.052 821.196 562.189 821.586 562.416 825.307C562.485 826.432 563.666 828.478 565.041 829.853C566.416 831.228 567.541 832.952 567.541 833.685C567.541 834.418 568.188 835.554 568.979 836.211C569.77 836.867 572.345 840.037 574.701 843.255C577.057 846.473 579.335 848.89 579.763 848.625C580.191 848.36 580.541 848.815 580.541 849.636C580.541 850.456 581.438 851.412 582.535 851.76C583.632 852.108 585.284 853.148 586.207 854.071C589.994 857.858 599.94 864.046 601.362 863.5C602.344 863.124 602.617 863.33 602.146 864.092C601.675 864.854 602.229 865.274 603.732 865.297C605.002 865.317 607.166 865.976 608.541 866.762C609.916 867.548 611.984 868.207 613.137 868.227C614.29 868.246 616.566 868.926 618.194 869.739C619.822 870.551 624.106 871.633 627.715 872.144C631.324 872.656 635.573 873.728 637.159 874.527C638.744 875.327 641.391 876.345 643.041 876.79C644.691 877.235 646.266 877.671 646.541 877.758C648.404 878.351 654.937 879.336 659.808 879.76C662.979 880.035 667.704 880.744 670.308 881.334C672.911 881.924 677.516 882.539 680.541 882.701C708.695 884.209 727.243 885.671 728.231 886.459C730.015 887.881 805.856 888.061 807.637 886.647C808.409 886.034 813.766 885.265 819.541 884.938C845.182 883.488 853.776 875.58 849.411 857.455C847.727 850.462 835.456 840.262 828.728 840.262C827.694 840.262 825.457 839.568 823.757 838.72C822.056 837.871 818.11 836.762 814.988 836.253C811.865 835.745 808.8 834.666 808.176 833.856C807.552 833.045 803.891 831.641 800.041 830.734C796.191 829.828 791.691 828.703 790.041 828.235C788.391 827.766 785.241 827.093 783.041 826.738C777.591 825.86 772.806 824.417 768.041 822.214C765.841 821.197 762.241 820.155 760.041 819.898C754.546 819.257 753.139 818.895 752.44 817.945C752.11 817.495 746.71 816.071 740.44 814.781C734.171 813.49 725.952 811.512 722.177 810.386C718.402 809.259 715.027 808.374 714.677 808.418C714.327 808.463 713.816 808.409 713.541 808.298C713.266 808.188 711.726 807.884 710.118 807.622C708.51 807.361 706.438 806.742 705.513 806.247C704.588 805.752 700.802 804.863 697.101 804.272C693.4 803.68 689.172 802.352 687.706 801.319C686.24 800.286 682.806 799.134 680.074 798.758C676.004 798.198 669.022 794.392 669.602 793.05C669.67 792.892 669.162 791.524 668.473 790.011C666.928 786.622 668.585 770.885 670.995 766.054C671.845 764.35 672.541 762.309 672.541 761.52C672.541 760.731 673.968 757.088 675.711 753.424C677.455 749.76 678.805 746.425 678.711 746.012C678.618 745.599 678.991 745.262 679.541 745.262C680.091 745.262 680.541 744.095 680.541 742.668C680.541 741.041 681.193 739.903 682.291 739.614C683.253 739.36 684.769 737.49 685.658 735.457C686.547 733.425 688.002 730.075 688.892 728.012C689.781 725.95 690.966 724.262 691.525 724.262C692.084 724.262 692.541 723.679 692.541 722.965C692.541 721.629 694.03 719.439 698.791 713.771C700.304 711.971 701.541 710.243 701.541 709.932C701.541 709.62 702.67 708.146 704.051 706.657C705.431 705.167 706.335 703.723 706.06 703.447C705.784 703.172 707.026 701.105 708.819 698.854C710.612 696.603 712.652 693.637 713.353 692.262C714.053 690.887 716.151 688.002 718.015 685.852C719.879 683.701 721.682 680.834 722.022 679.481C722.362 678.128 723.18 676.436 723.84 675.721C724.501 675.007 725.941 673.234 727.041 671.781C728.141 670.328 730.054 668.185 731.291 667.02C733.602 664.844 734.406 662.609 732.441 663.824C731.668 664.301 731.679 663.873 732.476 662.383C733.101 661.216 734.051 660.262 734.589 660.262C735.736 660.262 741.685 648.355 743.961 641.502C744.831 638.884 746.442 636.18 747.542 635.494C748.641 634.807 749.541 633.179 749.541 631.876C749.541 630.573 750.216 628.947 751.041 628.262C751.866 627.577 752.548 626.285 752.556 625.39C752.569 623.935 754.591 617.256 756.227 613.262C756.565 612.437 756.987 611.036 757.164 610.148C757.342 609.261 758.01 607.236 758.649 605.648C759.288 604.061 759.939 601.796 760.097 600.616C760.254 599.435 761.068 597.143 761.907 595.522C762.745 593.901 763.728 590.142 764.091 587.168C764.454 584.195 765.341 579.512 766.062 576.762C771.089 557.581 771.291 491.638 766.346 483.742C765.995 483.181 765.385 479.356 764.991 475.242C764.597 471.128 763.47 466.163 762.487 464.208C761.504 462.253 760.186 457.822 759.559 454.361C756.291 436.34 743.126 429.395 733.291 440.505ZM204.541 439.054C201.119 439.453 197.313 441.397 195.69 443.575C194.947 444.572 193.214 445.816 191.838 446.339C190.168 446.974 189.534 447.801 189.928 448.828C190.253 449.674 190.155 450.141 189.711 449.867C188.785 449.295 187.28 453.341 185.471 461.262C184.78 464.287 183.407 467.494 182.42 468.388C181.434 469.282 180.815 470.203 181.047 470.434C181.278 470.666 180.814 473.309 180.016 476.309C179.218 479.308 178.528 483.337 178.483 485.262C178.417 488.047 178.238 488.354 177.605 486.762C176.983 485.2 176.699 485.748 176.308 489.262C176.032 491.737 175.115 496.912 174.27 500.762C173.424 504.612 172.502 510.985 172.219 514.924C171.937 518.863 171.154 523.116 170.48 524.375C169.766 525.711 168.869 534.185 168.327 544.713C167.817 554.64 166.917 563.753 166.327 564.964C164.741 568.22 168.005 643.258 171.016 672.762C171.184 674.412 171.424 680.487 171.55 686.262C171.709 693.583 172.015 695.854 172.562 693.762C173.099 691.71 173.332 693.605 173.299 699.762C173.273 704.712 173.879 715.421 174.646 723.561C176.158 739.601 175.633 768.328 173.764 771.806C172.526 774.111 169.304 783.781 167.531 790.516C164.12 803.467 174.445 815.658 184.305 810.322C185.26 809.806 187.298 809.117 188.834 808.793C190.37 808.468 191.912 807.428 192.261 806.482C192.61 805.536 193.338 804.465 193.88 804.103C194.989 803.361 198.504 792.702 198.526 790.012C198.534 789.05 198.926 788.262 199.397 788.262C199.868 788.262 200.554 785.033 200.921 781.086C201.288 777.14 202.14 773.246 202.814 772.433C204.476 770.431 204.58 711.249 202.926 709.166C202.263 708.331 201.33 698.234 200.626 684.262C199.975 671.337 198.998 655.812 198.454 649.762C194.372 604.321 195.785 544.606 201.685 513.262C202.254 510.237 202.743 506.487 202.77 504.928C202.799 503.29 203.13 502.597 203.555 503.285C204.69 505.121 205.37 503.183 205.197 498.604C205.111 496.32 205.378 494.66 205.791 494.916C206.204 495.171 206.541 494.476 206.541 493.37C206.541 489.726 208.69 481.256 209.935 479.997C211.583 478.33 213.922 469.688 213.09 468.341C212.723 467.748 212.809 467.262 213.281 467.262C216.796 467.262 217.881 444.425 214.408 443.517C213.394 443.252 212.759 442.718 212.998 442.332C213.689 441.213 207.291 438.733 204.541 439.054ZM387.058 632.331C383.237 635.222 380.702 638.262 382.114 638.262C382.483 638.262 382.226 638.937 381.542 639.761C380.628 640.862 380.571 641.992 381.327 644.011C381.894 645.524 382.913 649.588 383.592 653.041C384.271 656.495 385.212 659.559 385.684 659.85C386.155 660.142 386.541 661.928 386.541 663.821C386.541 665.714 386.991 667.262 387.541 667.262C388.091 667.262 388.541 668.093 388.541 669.109C388.541 670.125 389.441 671.994 390.541 673.262C391.641 674.53 392.541 676.537 392.541 677.721C392.541 678.905 393.666 681.398 395.041 683.262C396.416 685.126 397.541 687.478 397.541 688.49C397.541 690.996 402.323 700.262 403.617 700.262C404.19 700.262 404.381 700.712 404.041 701.262C403.701 701.812 403.926 702.262 404.541 702.262C405.156 702.262 405.381 702.712 405.041 703.262C404.701 703.812 405.068 704.262 405.857 704.262C406.646 704.262 407.543 705.52 407.85 707.057C408.41 709.858 414.355 718.304 420.994 725.73C422.945 727.912 424.541 730.222 424.541 730.864C424.541 731.507 425.632 732.747 426.965 733.62C428.298 734.494 429.699 736.183 430.077 737.374C430.455 738.565 432.964 741.671 435.652 744.276C438.341 746.881 440.541 749.519 440.541 750.137C440.541 750.756 440.924 751.262 441.393 751.262C441.861 751.262 443.657 752.612 445.384 754.262C447.11 755.912 448.977 757.262 449.532 757.262C450.087 757.262 450.541 757.893 450.541 758.663C450.541 759.434 452.142 761.009 454.1 762.164C456.262 763.44 457.378 764.716 456.945 765.417C456.503 766.132 456.671 766.299 457.386 765.857C458.021 765.465 458.541 765.621 458.541 766.203C458.541 766.785 459.231 767.262 460.075 767.262C460.918 767.262 462.537 768.836 463.673 770.761C464.808 772.685 466.143 774.008 466.639 773.701C467.135 773.395 467.541 773.568 467.541 774.086C467.541 774.605 468.441 775.264 469.541 775.552C470.641 775.839 471.541 776.734 471.541 777.539C471.541 779.163 472.498 779.167 449.541 777.44C441.566 776.84 425.816 775.817 414.541 775.166C403.266 774.516 393.614 773.597 393.091 773.123C392.569 772.649 389.194 772.251 385.591 772.238C381.989 772.225 377.241 771.71 375.041 771.094C372.841 770.478 369.241 769.987 367.041 770.003C364.308 770.023 363.658 769.805 364.987 769.315C366.84 768.633 366.828 768.57 364.738 768.024C363.531 767.708 362.291 767.858 361.983 768.356C361.675 768.854 360.437 769.217 359.232 769.162C357.181 769.069 357.201 769.008 359.541 768.212C361.809 767.441 361.716 767.37 358.541 767.45C356.616 767.499 354.366 767.3 353.541 767.007C352.716 766.715 349.341 765.925 346.041 765.252C342.741 764.579 338.768 763.376 337.211 762.578C335.655 761.781 333.18 761.206 331.711 761.301C327.563 761.57 326.376 761.337 326.972 760.374C327.274 759.886 326.288 759.242 324.781 758.945C323.274 758.647 319.341 757.703 316.041 756.848C309.206 755.077 299.965 754.767 299.031 756.278C298.685 756.837 298.001 757.046 297.51 756.743C294.91 755.136 291.567 763.729 292.191 770.415C293.02 779.296 295.698 782.25 304.612 784.115C308.148 784.855 312.391 786.054 314.041 786.778C315.691 787.503 318.841 788.419 321.041 788.813C323.241 789.207 326.206 790.118 327.631 790.838C329.055 791.559 333.33 792.679 337.131 793.328C340.931 793.977 344.491 794.841 345.041 795.249C345.591 795.656 348.741 796.281 352.041 796.637C355.341 796.994 360.291 797.718 363.041 798.248C382.501 801.994 392.088 802.988 425.816 804.758C433.942 805.185 440.831 805.922 441.125 806.398C441.823 807.528 503.259 807.527 503.958 806.397C504.252 805.921 508.947 805.317 514.391 805.055C529.784 804.314 536.513 796.15 532.141 783.521C530.909 779.962 521.16 771.262 518.405 771.262C517.498 771.262 516.497 770.59 516.182 769.768C515.391 767.708 509.524 764.27 506.791 764.266C505.554 764.264 504.541 763.88 504.541 763.414C504.541 762.947 502.741 761.754 500.541 760.762C498.341 759.77 496.541 758.585 496.541 758.129C496.541 757.673 495.304 757.008 493.791 756.652C492.278 756.295 489.916 754.917 488.541 753.588C485.545 750.694 478.02 744.537 474.088 741.762C472.529 740.662 470.306 738.663 469.147 737.319C466.389 734.119 460.428 728.399 456.583 725.262C454.898 723.887 453.273 721.842 452.973 720.717C452.673 719.592 449.753 716.251 446.484 713.293C443.215 710.335 440.541 707.159 440.541 706.234C440.541 705.31 439.357 703.276 437.909 701.714C436.461 700.152 434.655 697.386 433.895 695.568C433.136 693.75 432.07 692.262 431.528 692.262C430.985 692.262 430.541 691.587 430.541 690.762C430.541 689.937 430.133 689.262 429.635 689.262C429.136 689.262 428.964 688.362 429.251 687.262C429.539 686.162 429.304 685.262 428.729 685.262C426.87 685.262 424.541 682.184 424.541 679.726C424.541 678.405 423.697 676.88 422.656 676.324C421.619 675.769 420.485 674.065 420.136 672.538C419.787 671.011 418.216 667.062 416.645 663.762C413.932 658.063 411.541 650.059 411.541 646.676C411.541 645.82 410.866 644.444 410.041 643.619C409.216 642.794 408.541 640.974 408.541 639.575C408.541 631.133 394.777 626.491 387.058 632.331ZM244.372 689.209C235.124 692.868 232.837 708.501 239.243 724.262C239.914 725.913 240.433 730.954 240.457 736.052C240.466 737.862 240.786 739.849 241.168 740.467C242.06 741.91 241.668 753.563 240.553 758.762C240.081 760.962 239.42 764.56 239.084 766.759C238.242 772.27 236.409 778.358 234.844 780.842C234.124 781.986 233.86 783.248 234.259 783.646C234.657 784.045 234.546 784.684 234.012 785.067C232.901 785.864 230.407 790.239 226.349 798.512C224.797 801.675 223.132 804.262 222.648 804.262C222.165 804.262 221.021 805.837 220.108 807.762C219.195 809.687 218.217 811.262 217.935 811.262C217.653 811.262 217.743 810.7 218.134 810.012C218.525 809.325 216.909 810.787 214.542 813.262C212.175 815.737 210.806 816.862 211.5 815.762C212.195 814.662 211.442 815.224 209.829 817.012C208.215 818.8 205.984 820.262 204.871 820.262C203.758 820.262 201.809 821.162 200.541 822.262C199.273 823.362 197.516 824.269 196.638 824.277C194.659 824.295 186.418 827.121 185.049 828.251C184.495 828.709 180.666 829.794 176.541 830.663C172.416 831.532 166.566 832.929 163.541 833.768C152.005 836.967 94.0281 840.387 81.1811 838.626C73.2291 837.536 77.4561 835.435 92.0411 833.228C95.8911 832.645 101.066 831.191 103.541 829.996C106.016 828.801 108.941 827.686 110.041 827.518C111.141 827.351 114.516 826.274 117.541 825.127C120.566 823.979 123.828 822.994 124.791 822.937C125.754 822.88 126.541 822.521 126.541 822.14C126.541 821.759 128.791 820.87 131.541 820.165C134.291 819.461 136.541 818.508 136.541 818.048C136.541 817.589 137.651 816.79 139.008 816.275C141.676 815.26 147.821 807.525 147.006 806.206C146.733 805.763 146.907 805.154 147.394 804.853C149.539 803.527 146.732 795.981 142.673 792.157C138.288 788.028 138.277 788.026 128.041 790.427C125.841 790.943 123.267 791.454 122.321 791.564C121.375 791.673 119.726 792.513 118.656 793.43C117.586 794.347 116.461 794.849 116.157 794.544C115.852 794.24 114.554 794.679 113.272 795.519C111.989 796.359 108.038 797.834 104.491 798.796C100.943 799.758 97.5561 801.137 96.9631 801.859C96.3711 802.582 94.3461 803.428 92.4631 803.74C90.5811 804.052 87.9161 804.722 86.5411 805.228C85.1661 805.734 81.4611 806.655 78.3081 807.273C75.1561 807.891 72.3121 808.824 71.9891 809.346C71.6671 809.868 70.9931 810.041 70.4931 809.732C69.9921 809.423 68.7861 809.591 67.8121 810.107C66.0741 811.027 40.9001 815.993 33.0411 816.966C30.8411 817.238 27.5291 818.166 25.6801 819.028C23.8311 819.89 21.0391 820.595 19.4741 820.595C17.9091 820.595 16.8791 821 17.1851 821.496C17.4911 821.991 17.0841 822.253 16.2811 822.079C13.9811 821.58 4.49809 828.223 3.35709 831.133C2.79009 832.579 1.93309 834.53 1.45209 835.468C-1.41791 841.074 0.253085 852.262 3.96008 852.262C4.79708 852.262 6.48408 853.619 7.71008 855.277C9.10908 857.169 11.4491 858.696 13.9901 859.375C16.2181 859.97 18.5561 860.879 19.1861 861.395C19.8151 861.91 20.7151 862.221 21.1861 862.085C21.6561 861.948 23.0811 862.413 24.3511 863.117C25.6601 863.842 29.5621 864.346 33.3511 864.279C37.0311 864.214 45.7251 864.81 52.6731 865.603C64.6081 866.965 76.0651 867.523 95.5411 867.689C105.636 867.776 139.761 866.519 144.041 865.903C145.691 865.665 151.541 865.154 157.041 864.767C162.541 864.379 167.41 863.836 167.861 863.56C168.312 863.283 172.053 862.235 176.175 861.229C180.296 860.224 184.223 858.941 184.901 858.379C185.579 857.816 188.262 857.172 190.864 856.949C193.465 856.725 195.882 856.254 196.234 855.902C196.586 855.55 197.699 855.262 198.708 855.262C199.716 855.262 200.541 854.587 200.541 853.762C200.541 852.858 201.535 852.218 203.041 852.151C204.416 852.09 206.553 851.996 207.791 851.943C209.029 851.89 210.636 851.265 211.362 850.554C212.089 849.844 213.301 849.262 214.056 849.262C214.81 849.262 216.016 848.427 216.734 847.406C217.453 846.385 219.841 844.624 222.041 843.493C224.241 842.362 226.976 840.552 228.118 839.471C229.26 838.391 231.159 837.201 232.337 836.827C234.98 835.988 245.734 824.064 246.876 820.706C247.336 819.355 248.123 818.504 248.626 818.815C249.129 819.126 249.541 818.727 249.541 817.928C249.541 817.129 250.263 816.199 251.145 815.861C252.09 815.498 252.505 814.611 252.156 813.702C251.83 812.853 251.962 812.404 252.448 812.704C253.451 813.324 254.541 811.006 254.541 808.252C254.541 807.236 255.329 805.62 256.291 804.662C258.521 802.44 261.539 794.593 261.54 791.012C261.541 789.499 261.982 788.262 262.522 788.262C263.061 788.262 263.776 787.025 264.111 785.512C264.445 783.999 265.392 780.062 266.215 776.762C268.676 766.897 269.044 762.585 268.986 744.262C268.934 727.745 267.358 711.867 265.391 708.047C264.906 707.104 264.324 704.415 264.098 702.072C263.872 699.728 263.205 697.65 262.614 697.453C262.024 697.256 261.541 696.276 261.541 695.274C261.541 691.085 249.964 686.996 244.372 689.209Z" fill="black"/>
</svg>
